<?xml version="1.0" encoding="UTF-8" standalone="no"?>
<!DOCTYPE svg PUBLIC "-//W3C//DTD SVG 1.1//EN" "http://www.w3.org/Graphics/SVG/1.1/DTD/svg11.dtd">
<!-- Generated by graphviz version 2.26.3 (20100126.1600)
 -->
<!-- Title: G Pages: 1 -->
<svg xmlns="http://www.w3.org/2000/svg" xmlns:xlink="http://www.w3.org/1999/xlink" width="686pt" height="701pt">
<g id="viewport" class="graph" transform="scale(1 1) rotate(0) translate(4 697)">
<title>G</title>
<polygon fill="white" stroke="white" points="-4,5 -4,-697 683,-697 683,5 -4,5"/>
<g id="graph2" class="cluster"><title>cluster_Phpass</title>
<polyline fill="none" stroke="gray" points="20,-158 658,-158 "/>
<path fill="none" stroke="gray" d="M658,-158C664,-158 670,-164 670,-170"/>
<polyline fill="none" stroke="gray" points="670,-170 670,-613 "/>
<path fill="none" stroke="gray" d="M670,-613C670,-619 664,-625 658,-625"/>
<polyline fill="none" stroke="gray" points="658,-625 20,-625 "/>
<path fill="none" stroke="gray" d="M20,-625C14,-625 8,-619 8,-613"/>
<polyline fill="none" stroke="gray" points="8,-613 8,-170 "/>
<path fill="none" stroke="gray" d="M8,-170C8,-164 14,-158 20,-158"/>
<text text-anchor="middle" x="339" y="-611.1" font-family="Times Roman,serif" font-size="11.00" fill="gray">Phpass</text>
</g>
<g id="graph3" class="cluster"><title>cluster_Phpass_Adapter</title>
<polyline fill="none" stroke="gray" points="254,-357 596,-357 "/>
<path fill="none" stroke="gray" d="M596,-357C602,-357 608,-363 608,-369"/>
<polyline fill="none" stroke="gray" points="608,-369 608,-582 "/>
<path fill="none" stroke="gray" d="M608,-582C608,-588 602,-594 596,-594"/>
<polyline fill="none" stroke="gray" points="596,-594 254,-594 "/>
<path fill="none" stroke="gray" d="M254,-594C248,-594 242,-588 242,-582"/>
<polyline fill="none" stroke="gray" points="242,-582 242,-369 "/>
<path fill="none" stroke="gray" d="M242,-369C242,-363 248,-357 254,-357"/>
<text text-anchor="middle" x="425" y="-580.1" font-family="Times Roman,serif" font-size="11.00" fill="gray">Adapter</text>
</g>
<g id="graph4" class="cluster"><title>cluster_Phpass_Exception</title>
<polyline fill="none" stroke="gray" points="478,-166 650,-166 "/>
<path fill="none" stroke="gray" d="M650,-166C656,-166 662,-172 662,-178"/>
<polyline fill="none" stroke="gray" points="662,-178 662,-337 "/>
<path fill="none" stroke="gray" d="M662,-337C662,-343 656,-349 650,-349"/>
<polyline fill="none" stroke="gray" points="650,-349 478,-349 "/>
<path fill="none" stroke="gray" d="M478,-349C472,-349 466,-343 466,-337"/>
<polyline fill="none" stroke="gray" points="466,-337 466,-178 "/>
<path fill="none" stroke="gray" d="M466,-178C466,-172 472,-166 478,-166"/>
<text text-anchor="middle" x="564" y="-335.1" font-family="Times Roman,serif" font-size="11.00" fill="gray">Exception</text>
</g>
<g id="graph5" class="cluster"><title>cluster_default</title>
<polyline fill="none" stroke="none" points="539,-633 589,-633 "/>
<path fill="none" stroke="none" d="M589,-633C595,-633 601,-639 601,-645"/>
<polyline fill="none" stroke="none" points="601,-645 601,-673 "/>
<path fill="none" stroke="none" d="M601,-673C601,-679 595,-685 589,-685"/>
<polyline fill="none" stroke="none" points="589,-685 539,-685 "/>
<path fill="none" stroke="none" d="M539,-685C533,-685 527,-679 527,-673"/>
<polyline fill="none" stroke="none" points="527,-673 527,-645 "/>
<path fill="none" stroke="none" d="M527,-645C527,-639 533,-633 539,-633"/>
</g>
<!-- _Phpass_Adapter_Portable -->
<g id="node3" class="node"><title>_Phpass_Adapter_Portable</title>
<a xlink:href="db_Phpass_Adapter_Portable.html" xlink:title="Portable" target="_parent">
<polygon fill="none" stroke="black" points="599,-563 529,-563 529,-527 599,-527 599,-563"/>
<text text-anchor="middle" x="564" y="-542.1" font-family="Courier New" font-size="11.00">Portable</text>
</a>
</g>
<!-- _Phpass_Adapter_Base -->
<g id="node5" class="node"><title>_Phpass_Adapter_Base</title>
<a xlink:href="db_Phpass_Adapter_Base.html" xlink:title="&lt;I&gt;Base&lt;/I&gt;" target="_parent">
<polygon fill="none" stroke="black" points="304,-482 250,-482 250,-446 304,-446 304,-482"/>
<text text-anchor="start" x="263" y="-461.933" font-family="Courier New" font-size="11.00">Base</text>
</a>
</g>
<!-- _Phpass_Adapter_Portable&#45;&gt;_Phpass_Adapter_Base -->
<g id="edge12" class="edge"><title>_Phpass_Adapter_Portable-&gt;_Phpass_Adapter_Base</title>
<path fill="none" stroke="black" d="M528.137,-535.207C509.578,-530.117 486.56,-523.769 466,-518 413.067,-503.147 351.907,-485.602 313.837,-474.636"/>
<polygon fill="none" stroke="black" points="314.785,-471.267 304.207,-471.861 312.846,-477.993 314.785,-471.267"/>
</g>
<!-- _Phpass_Adapter_ExtDes -->
<g id="node4" class="node"><title>_Phpass_Adapter_ExtDes</title>
<a xlink:href="db_Phpass_Adapter_ExtDes.html" xlink:title="ExtDes" target="_parent">
<polygon fill="none" stroke="black" points="592,-509 536,-509 536,-473 592,-473 592,-509"/>
<text text-anchor="middle" x="564" y="-488.1" font-family="Courier New" font-size="11.00">ExtDes</text>
</a>
</g>
<!-- _Phpass_Adapter_ExtDes&#45;&gt;_Phpass_Adapter_Base -->
<g id="edge14" class="edge"><title>_Phpass_Adapter_ExtDes-&gt;_Phpass_Adapter_Base</title>
<path fill="none" stroke="black" d="M535.432,-488.312C483.243,-483.403 372.522,-472.986 314.404,-467.519"/>
<polygon fill="none" stroke="black" points="314.474,-464.01 304.19,-466.558 313.818,-470.979 314.474,-464.01"/>
</g>
<!-- _Phpass_Adapter -->
<g id="node13" class="node"><title>_Phpass_Adapter</title>
<a xlink:href="db_Phpass_Adapter.html" xlink:title="Adapter" target="_parent">
<polygon fill="none" stroke="black" points="80,-482 16,-482 16,-446 80,-446 80,-482"/>
<text text-anchor="middle" x="48" y="-461.1" font-family="Courier New" font-size="11.00">Adapter</text>
</a>
</g>
<!-- _Phpass_Adapter_Base&#45;&gt;_Phpass_Adapter -->
<g id="edge26" class="edge"><title>_Phpass_Adapter_Base-&gt;_Phpass_Adapter</title>
<path fill="none" stroke="black" stroke-dasharray="1,5" d="M249.831,-464C210.399,-464 136.945,-464 90.3641,-464"/>
<polygon fill="none" stroke="black" points="90.2828,-460.5 80.2828,-464 90.2828,-467.5 90.2828,-460.5"/>
</g>
<!-- _Phpass_Adapter_Pbkdf2 -->
<g id="node6" class="node"><title>_Phpass_Adapter_Pbkdf2</title>
<a xlink:href="db_Phpass_Adapter_Pbkdf2.html" xlink:title="Pbkdf2" target="_parent">
<polygon fill="none" stroke="black" points="592,-455 536,-455 536,-419 592,-419 592,-455"/>
<text text-anchor="middle" x="564" y="-434.1" font-family="Courier New" font-size="11.00">Pbkdf2</text>
</a>
</g>
<!-- _Phpass_Adapter_Pbkdf2&#45;&gt;_Phpass_Adapter_Base -->
<g id="edge16" class="edge"><title>_Phpass_Adapter_Pbkdf2-&gt;_Phpass_Adapter_Base</title>
<path fill="none" stroke="black" d="M535.432,-439.688C483.243,-444.597 372.522,-455.014 314.404,-460.481"/>
<polygon fill="none" stroke="black" points="313.818,-457.021 304.19,-461.442 314.474,-463.99 313.818,-457.021"/>
</g>
<!-- _Phpass_Adapter_Blowfish -->
<g id="node7" class="node"><title>_Phpass_Adapter_Blowfish</title>
<a xlink:href="db_Phpass_Adapter_Blowfish.html" xlink:title="Blowfish" target="_parent">
<polygon fill="none" stroke="black" points="599,-401 529,-401 529,-365 599,-365 599,-401"/>
<text text-anchor="middle" x="564" y="-380.1" font-family="Courier New" font-size="11.00">Blowfish</text>
</a>
</g>
<!-- _Phpass_Adapter_Blowfish&#45;&gt;_Phpass_Adapter_Base -->
<g id="edge18" class="edge"><title>_Phpass_Adapter_Blowfish-&gt;_Phpass_Adapter_Base</title>
<path fill="none" stroke="black" d="M528.081,-391.111C509.302,-395.796 486.102,-402.29 466,-410 436.307,-421.389 432.198,-432.028 402,-442 373.439,-451.431 339.798,-457.059 314.613,-460.259"/>
<polygon fill="none" stroke="black" points="313.89,-456.821 304.377,-461.486 314.723,-463.771 313.89,-456.821"/>
</g>
<!-- _Phpass_Exception_InvalidArgumentException -->
<g id="node9" class="node"><title>_Phpass_Exception_InvalidArgumentException</title>
<a xlink:href="db_Phpass_Exception_InvalidArgumentException.html" xlink:title="InvalidArgumentException" target="_parent">
<polygon fill="none" stroke="black" points="653,-318 475,-318 475,-282 653,-282 653,-318"/>
<text text-anchor="middle" x="564" y="-297.1" font-family="Courier New" font-size="11.00">InvalidArgumentException</text>
</a>
</g>
<!-- _Phpass_Exception -->
<g id="node12" class="node"><title>_Phpass_Exception</title>
<a xlink:href="db_Phpass_Exception.html" xlink:title="Exception" target="_parent">
<polygon fill="none" stroke="black" points="315,-264 239,-264 239,-228 315,-228 315,-264"/>
<text text-anchor="middle" x="277" y="-243.1" font-family="Courier New" font-size="11.00">Exception</text>
</a>
</g>
<!-- _Phpass_Exception_InvalidArgumentException&#45;&gt;_Phpass_Exception -->
<g id="edge20" class="edge"><title>_Phpass_Exception_InvalidArgumentException-&gt;_Phpass_Exception</title>
<path fill="none" stroke="black" stroke-dasharray="1,5" d="M474.372,-283.136C425.247,-273.893 366.267,-262.796 325.65,-255.154"/>
<polygon fill="none" stroke="black" points="326.211,-251.698 315.736,-253.288 324.917,-258.577 326.211,-251.698"/>
</g>
<!-- _InvalidArgumentException -->
<g id="node17" class="node"><title>_InvalidArgumentException</title>
<ellipse fill="none" stroke="black" cx="277" cy="-131" rx="121.83" ry="19.0919"/>
<text text-anchor="middle" x="277" y="-127.9" font-family="Times Roman,serif" font-size="14.00" fill="gray">\\InvalidArgumentException</text>
</g>
<!-- _Phpass_Exception_InvalidArgumentException&#45;&gt;_InvalidArgumentException -->
<g id="edge6" class="edge"><title>_Phpass_Exception_InvalidArgumentException-&gt;_InvalidArgumentException</title>
<path fill="none" stroke="black" d="M479.876,-281.996C474.956,-279.391 470.278,-276.411 466,-273 419.045,-235.562 450.536,-189.363 402,-154 397.762,-150.912 393.233,-148.199 388.504,-145.818"/>
<polygon fill="none" stroke="black" points="389.745,-142.539 379.188,-141.638 386.879,-148.925 389.745,-142.539"/>
</g>
<!-- _Phpass_Exception_UnexpectedValueException -->
<g id="node10" class="node"><title>_Phpass_Exception_UnexpectedValueException</title>
<a xlink:href="db_Phpass_Exception_UnexpectedValueException.html" xlink:title="UnexpectedValueException" target="_parent">
<polygon fill="none" stroke="black" points="653,-264 475,-264 475,-228 653,-228 653,-264"/>
<text text-anchor="middle" x="564" y="-243.1" font-family="Courier New" font-size="11.00">UnexpectedValueException</text>
</a>
</g>
<!-- _Phpass_Exception_UnexpectedValueException&#45;&gt;_Phpass_Exception -->
<g id="edge22" class="edge"><title>_Phpass_Exception_UnexpectedValueException-&gt;_Phpass_Exception</title>
<path fill="none" stroke="black" stroke-dasharray="1,5" d="M474.372,-246C425.351,-246 366.517,-246 325.908,-246"/>
<polygon fill="none" stroke="black" points="325.736,-242.5 315.736,-246 325.736,-249.5 325.736,-242.5"/>
</g>
<!-- _UnexpectedValueException -->
<g id="node19" class="node"><title>_UnexpectedValueException</title>
<ellipse fill="none" stroke="black" cx="277" cy="-75" rx="123.951" ry="19.0919"/>
<text text-anchor="middle" x="277" y="-71.9" font-family="Times Roman,serif" font-size="14.00" fill="gray">\\UnexpectedValueException</text>
</g>
<!-- _Phpass_Exception_UnexpectedValueException&#45;&gt;_UnexpectedValueException -->
<g id="edge8" class="edge"><title>_Phpass_Exception_UnexpectedValueException-&gt;_UnexpectedValueException</title>
<path fill="none" stroke="black" d="M479.918,-227.942C474.988,-225.351 470.296,-222.388 466,-219 419.765,-182.54 449.106,-138.329 402,-103 395.745,-98.309 388.851,-94.3783 381.611,-91.0876"/>
<polygon fill="none" stroke="black" points="382.857,-87.8157 372.277,-87.2527 380.197,-94.2905 382.857,-87.8157"/>
</g>
<!-- _Phpass_Exception_RuntimeException -->
<g id="node11" class="node"><title>_Phpass_Exception_RuntimeException</title>
<a xlink:href="db_Phpass_Exception_RuntimeException.html" xlink:title="RuntimeException" target="_parent">
<polygon fill="none" stroke="black" points="626,-210 502,-210 502,-174 626,-174 626,-210"/>
<text text-anchor="middle" x="564" y="-189.1" font-family="Courier New" font-size="11.00">RuntimeException</text>
</a>
</g>
<!-- _Phpass_Exception_RuntimeException&#45;&gt;_Phpass_Exception -->
<g id="edge24" class="edge"><title>_Phpass_Exception_RuntimeException-&gt;_Phpass_Exception</title>
<path fill="none" stroke="black" stroke-dasharray="1,5" d="M501.36,-204.689C471.33,-210.691 434.831,-217.869 402,-224 376.811,-228.704 348.712,-233.674 325.546,-237.698"/>
<polygon fill="none" stroke="black" points="324.867,-234.263 315.61,-239.418 326.061,-241.161 324.867,-234.263"/>
</g>
<!-- _RuntimeException -->
<g id="node21" class="node"><title>_RuntimeException</title>
<ellipse fill="none" stroke="black" cx="277" cy="-19" rx="89.0955" ry="19.0919"/>
<text text-anchor="middle" x="277" y="-15.9" font-family="Times Roman,serif" font-size="14.00" fill="gray">\\RuntimeException</text>
</g>
<!-- _Phpass_Exception_RuntimeException&#45;&gt;_RuntimeException -->
<g id="edge10" class="edge"><title>_Phpass_Exception_RuntimeException-&gt;_RuntimeException</title>
<path fill="none" stroke="black" d="M549.138,-173.615C522.889,-142.448 465.098,-79.4674 402,-47 389.588,-40.6135 375.749,-35.6755 361.927,-31.8596"/>
<polygon fill="none" stroke="black" points="362.444,-28.3786 351.887,-29.2747 360.699,-35.1575 362.444,-28.3786"/>
</g>
<!-- _Phpass -->
<g id="node15" class="node"><title>_Phpass</title>
<a xlink:href="db_Phpass.html" xlink:title="Phpass" target="_parent">
<polygon fill="none" stroke="black" points="592,-677 536,-677 536,-641 592,-641 592,-677"/>
<text text-anchor="middle" x="564" y="-656.1" font-family="Courier New" font-size="11.00">Phpass</text>
</a>
</g>
</g>
<script xlink:href="js/SVGPan.js"/></svg>
