<?xml version="1.0" encoding="UTF-8" standalone="no"?>
<!DOCTYPE svg PUBLIC "-//W3C//DTD SVG 1.1//EN" "http://www.w3.org/Graphics/SVG/1.1/DTD/svg11.dtd">
<!-- Generated by graphviz version 2.26.3 (20100126.1600)
 -->
<!-- Title: G Pages: 1 -->
<svg xmlns="http://www.w3.org/2000/svg" xmlns:xlink="http://www.w3.org/1999/xlink" width="686pt" height="647pt">
<g id="viewport" class="graph" transform="scale(1 1) rotate(0) translate(4 643)">
<title>G</title>
<polygon fill="white" stroke="white" points="-4,5 -4,-643 683,-643 683,5 -4,5"/>
<g id="graph2" class="cluster"><title>cluster_Phpass</title>
<polyline fill="none" stroke="gray" points="20,-158 658,-158 "/>
<path fill="none" stroke="gray" d="M658,-158C664,-158 670,-164 670,-170"/>
<polyline fill="none" stroke="gray" points="670,-170 670,-559 "/>
<path fill="none" stroke="gray" d="M670,-559C670,-565 664,-571 658,-571"/>
<polyline fill="none" stroke="gray" points="658,-571 20,-571 "/>
<path fill="none" stroke="gray" d="M20,-571C14,-571 8,-565 8,-559"/>
<polyline fill="none" stroke="gray" points="8,-559 8,-170 "/>
<path fill="none" stroke="gray" d="M8,-170C8,-164 14,-158 20,-158"/>
<text text-anchor="middle" x="339" y="-557.1" font-family="Times Roman,serif" font-size="11.00" fill="gray">Phpass</text>
</g>
<g id="graph3" class="cluster"><title>cluster_Phpass_Adapter</title>
<polyline fill="none" stroke="gray" points="254,-357 596,-357 "/>
<path fill="none" stroke="gray" d="M596,-357C602,-357 608,-363 608,-369"/>
<polyline fill="none" stroke="gray" points="608,-369 608,-528 "/>
<path fill="none" stroke="gray" d="M608,-528C608,-534 602,-540 596,-540"/>
<polyline fill="none" stroke="gray" points="596,-540 254,-540 "/>
<path fill="none" stroke="gray" d="M254,-540C248,-540 242,-534 242,-528"/>
<polyline fill="none" stroke="gray" points="242,-528 242,-369 "/>
<path fill="none" stroke="gray" d="M242,-369C242,-363 248,-357 254,-357"/>
<text text-anchor="middle" x="425" y="-526.1" font-family="Times Roman,serif" font-size="11.00" fill="gray">Adapter</text>
</g>
<g id="graph4" class="cluster"><title>cluster_Phpass_Exception</title>
<polyline fill="none" stroke="gray" points="478,-166 650,-166 "/>
<path fill="none" stroke="gray" d="M650,-166C656,-166 662,-172 662,-178"/>
<polyline fill="none" stroke="gray" points="662,-178 662,-337 "/>
<path fill="none" stroke="gray" d="M662,-337C662,-343 656,-349 650,-349"/>
<polyline fill="none" stroke="gray" points="650,-349 478,-349 "/>
<path fill="none" stroke="gray" d="M478,-349C472,-349 466,-343 466,-337"/>
<polyline fill="none" stroke="gray" points="466,-337 466,-178 "/>
<path fill="none" stroke="gray" d="M466,-178C466,-172 472,-166 478,-166"/>
<text text-anchor="middle" x="564" y="-335.1" font-family="Times Roman,serif" font-size="11.00" fill="gray">Exception</text>
</g>
<g id="graph5" class="cluster"><title>cluster_default</title>
<polyline fill="none" stroke="none" points="539,-579 589,-579 "/>
<path fill="none" stroke="none" d="M589,-579C595,-579 601,-585 601,-591"/>
<polyline fill="none" stroke="none" points="601,-591 601,-619 "/>
<path fill="none" stroke="none" d="M601,-619C601,-625 595,-631 589,-631"/>
<polyline fill="none" stroke="none" points="589,-631 539,-631 "/>
<path fill="none" stroke="none" d="M539,-631C533,-631 527,-625 527,-619"/>
<polyline fill="none" stroke="none" points="527,-619 527,-591 "/>
<path fill="none" stroke="none" d="M527,-591C527,-585 533,-579 539,-579"/>
</g>
<!-- _Phpass_Adapter_Portable -->
<g id="node3" class="node"><title>_Phpass_Adapter_Portable</title>
<a xlink:href="db_Phpass_Adapter_Portable.html" xlink:title="Portable" target="_parent">
<polygon fill="none" stroke="black" points="599,-401 529,-401 529,-365 599,-365 599,-401"/>
<text text-anchor="middle" x="564" y="-380.1" font-family="Courier New" font-size="11.00">Portable</text>
</a>
</g>
<!-- _Phpass_Adapter_Base -->
<g id="node5" class="node"><title>_Phpass_Adapter_Base</title>
<a xlink:href="db_Phpass_Adapter_Base.html" xlink:title="&lt;I&gt;Base&lt;/I&gt;" target="_parent">
<polygon fill="none" stroke="black" points="304,-455 250,-455 250,-419 304,-419 304,-455"/>
<text text-anchor="start" x="263" y="-434.933" font-family="Courier New" font-size="11.00">Base</text>
</a>
</g>
<!-- _Phpass_Adapter_Portable&#45;&gt;_Phpass_Adapter_Base -->
<g id="edge12" class="edge"><title>_Phpass_Adapter_Portable-&gt;_Phpass_Adapter_Base</title>
<path fill="none" stroke="black" d="M528.328,-390.268C495.531,-396.897 445.54,-406.869 402,-415 372.623,-420.486 339.289,-426.334 314.436,-430.621"/>
<polygon fill="none" stroke="black" points="313.602,-427.213 304.34,-432.357 314.789,-434.111 313.602,-427.213"/>
</g>
<!-- _Phpass_Adapter_ExtDes -->
<g id="node4" class="node"><title>_Phpass_Adapter_ExtDes</title>
<a xlink:href="db_Phpass_Adapter_ExtDes.html" xlink:title="ExtDes" target="_parent">
<polygon fill="none" stroke="black" points="592,-509 536,-509 536,-473 592,-473 592,-509"/>
<text text-anchor="middle" x="564" y="-488.1" font-family="Courier New" font-size="11.00">ExtDes</text>
</a>
</g>
<!-- _Phpass_Adapter_ExtDes&#45;&gt;_Phpass_Adapter_Base -->
<g id="edge14" class="edge"><title>_Phpass_Adapter_ExtDes-&gt;_Phpass_Adapter_Base</title>
<path fill="none" stroke="black" d="M535.432,-485.625C483.135,-475.785 372.063,-454.886 314.043,-443.97"/>
<polygon fill="none" stroke="black" points="314.665,-440.525 304.19,-442.116 313.371,-447.405 314.665,-440.525"/>
</g>
<!-- _Phpass_Adapter -->
<g id="node12" class="node"><title>_Phpass_Adapter</title>
<a xlink:href="db_Phpass_Adapter.html" xlink:title="Adapter" target="_parent">
<polygon fill="none" stroke="black" points="80,-455 16,-455 16,-419 80,-419 80,-455"/>
<text text-anchor="middle" x="48" y="-434.1" font-family="Courier New" font-size="11.00">Adapter</text>
</a>
</g>
<!-- _Phpass_Adapter_Base&#45;&gt;_Phpass_Adapter -->
<g id="edge24" class="edge"><title>_Phpass_Adapter_Base-&gt;_Phpass_Adapter</title>
<path fill="none" stroke="black" stroke-dasharray="1,5" d="M249.831,-437C210.399,-437 136.945,-437 90.3641,-437"/>
<polygon fill="none" stroke="black" points="90.2828,-433.5 80.2828,-437 90.2828,-440.5 90.2828,-433.5"/>
</g>
<!-- _Phpass_Adapter_Blowfish -->
<g id="node6" class="node"><title>_Phpass_Adapter_Blowfish</title>
<a xlink:href="db_Phpass_Adapter_Blowfish.html" xlink:title="Blowfish" target="_parent">
<polygon fill="none" stroke="black" points="599,-455 529,-455 529,-419 599,-419 599,-455"/>
<text text-anchor="middle" x="564" y="-434.1" font-family="Courier New" font-size="11.00">Blowfish</text>
</a>
</g>
<!-- _Phpass_Adapter_Blowfish&#45;&gt;_Phpass_Adapter_Base -->
<g id="edge16" class="edge"><title>_Phpass_Adapter_Blowfish-&gt;_Phpass_Adapter_Base</title>
<path fill="none" stroke="black" d="M528.232,-437C473.6,-437 369.876,-437 314.327,-437"/>
<polygon fill="none" stroke="black" points="314.213,-433.5 304.213,-437 314.213,-440.5 314.213,-433.5"/>
</g>
<!-- _Phpass_Exception_InvalidArgumentException -->
<g id="node8" class="node"><title>_Phpass_Exception_InvalidArgumentException</title>
<a xlink:href="db_Phpass_Exception_InvalidArgumentException.html" xlink:title="InvalidArgumentException" target="_parent">
<polygon fill="none" stroke="black" points="653,-318 475,-318 475,-282 653,-282 653,-318"/>
<text text-anchor="middle" x="564" y="-297.1" font-family="Courier New" font-size="11.00">InvalidArgumentException</text>
</a>
</g>
<!-- _Phpass_Exception -->
<g id="node11" class="node"><title>_Phpass_Exception</title>
<a xlink:href="db_Phpass_Exception.html" xlink:title="Exception" target="_parent">
<polygon fill="none" stroke="black" points="315,-264 239,-264 239,-228 315,-228 315,-264"/>
<text text-anchor="middle" x="277" y="-243.1" font-family="Courier New" font-size="11.00">Exception</text>
</a>
</g>
<!-- _Phpass_Exception_InvalidArgumentException&#45;&gt;_Phpass_Exception -->
<g id="edge18" class="edge"><title>_Phpass_Exception_InvalidArgumentException-&gt;_Phpass_Exception</title>
<path fill="none" stroke="black" stroke-dasharray="1,5" d="M474.372,-283.136C425.247,-273.893 366.267,-262.796 325.65,-255.154"/>
<polygon fill="none" stroke="black" points="326.211,-251.698 315.736,-253.288 324.917,-258.577 326.211,-251.698"/>
</g>
<!-- _InvalidArgumentException -->
<g id="node16" class="node"><title>_InvalidArgumentException</title>
<ellipse fill="none" stroke="black" cx="277" cy="-131" rx="121.83" ry="19.0919"/>
<text text-anchor="middle" x="277" y="-127.9" font-family="Times Roman,serif" font-size="14.00" fill="gray">\\InvalidArgumentException</text>
</g>
<!-- _Phpass_Exception_InvalidArgumentException&#45;&gt;_InvalidArgumentException -->
<g id="edge6" class="edge"><title>_Phpass_Exception_InvalidArgumentException-&gt;_InvalidArgumentException</title>
<path fill="none" stroke="black" d="M479.876,-281.996C474.956,-279.391 470.278,-276.411 466,-273 419.045,-235.562 450.536,-189.363 402,-154 397.762,-150.912 393.233,-148.199 388.504,-145.818"/>
<polygon fill="none" stroke="black" points="389.745,-142.539 379.188,-141.638 386.879,-148.925 389.745,-142.539"/>
</g>
<!-- _Phpass_Exception_UnexpectedValueException -->
<g id="node9" class="node"><title>_Phpass_Exception_UnexpectedValueException</title>
<a xlink:href="db_Phpass_Exception_UnexpectedValueException.html" xlink:title="UnexpectedValueException" target="_parent">
<polygon fill="none" stroke="black" points="653,-264 475,-264 475,-228 653,-228 653,-264"/>
<text text-anchor="middle" x="564" y="-243.1" font-family="Courier New" font-size="11.00">UnexpectedValueException</text>
</a>
</g>
<!-- _Phpass_Exception_UnexpectedValueException&#45;&gt;_Phpass_Exception -->
<g id="edge20" class="edge"><title>_Phpass_Exception_UnexpectedValueException-&gt;_Phpass_Exception</title>
<path fill="none" stroke="black" stroke-dasharray="1,5" d="M474.372,-246C425.351,-246 366.517,-246 325.908,-246"/>
<polygon fill="none" stroke="black" points="325.736,-242.5 315.736,-246 325.736,-249.5 325.736,-242.5"/>
</g>
<!-- _UnexpectedValueException -->
<g id="node18" class="node"><title>_UnexpectedValueException</title>
<ellipse fill="none" stroke="black" cx="277" cy="-75" rx="123.951" ry="19.0919"/>
<text text-anchor="middle" x="277" y="-71.9" font-family="Times Roman,serif" font-size="14.00" fill="gray">\\UnexpectedValueException</text>
</g>
<!-- _Phpass_Exception_UnexpectedValueException&#45;&gt;_UnexpectedValueException -->
<g id="edge8" class="edge"><title>_Phpass_Exception_UnexpectedValueException-&gt;_UnexpectedValueException</title>
<path fill="none" stroke="black" d="M479.918,-227.942C474.988,-225.351 470.296,-222.388 466,-219 419.765,-182.54 449.106,-138.329 402,-103 395.745,-98.309 388.851,-94.3783 381.611,-91.0876"/>
<polygon fill="none" stroke="black" points="382.857,-87.8157 372.277,-87.2527 380.197,-94.2905 382.857,-87.8157"/>
</g>
<!-- _Phpass_Exception_RuntimeException -->
<g id="node10" class="node"><title>_Phpass_Exception_RuntimeException</title>
<a xlink:href="db_Phpass_Exception_RuntimeException.html" xlink:title="RuntimeException" target="_parent">
<polygon fill="none" stroke="black" points="626,-210 502,-210 502,-174 626,-174 626,-210"/>
<text text-anchor="middle" x="564" y="-189.1" font-family="Courier New" font-size="11.00">RuntimeException</text>
</a>
</g>
<!-- _Phpass_Exception_RuntimeException&#45;&gt;_Phpass_Exception -->
<g id="edge22" class="edge"><title>_Phpass_Exception_RuntimeException-&gt;_Phpass_Exception</title>
<path fill="none" stroke="black" stroke-dasharray="1,5" d="M501.36,-204.689C471.33,-210.691 434.831,-217.869 402,-224 376.811,-228.704 348.712,-233.674 325.546,-237.698"/>
<polygon fill="none" stroke="black" points="324.867,-234.263 315.61,-239.418 326.061,-241.161 324.867,-234.263"/>
</g>
<!-- _RuntimeException -->
<g id="node20" class="node"><title>_RuntimeException</title>
<ellipse fill="none" stroke="black" cx="277" cy="-19" rx="89.0955" ry="19.0919"/>
<text text-anchor="middle" x="277" y="-15.9" font-family="Times Roman,serif" font-size="14.00" fill="gray">\\RuntimeException</text>
</g>
<!-- _Phpass_Exception_RuntimeException&#45;&gt;_RuntimeException -->
<g id="edge10" class="edge"><title>_Phpass_Exception_RuntimeException-&gt;_RuntimeException</title>
<path fill="none" stroke="black" d="M549.138,-173.615C522.889,-142.448 465.098,-79.4674 402,-47 389.588,-40.6135 375.749,-35.6755 361.927,-31.8596"/>
<polygon fill="none" stroke="black" points="362.444,-28.3786 351.887,-29.2747 360.699,-35.1575 362.444,-28.3786"/>
</g>
<!-- _Phpass -->
<g id="node14" class="node"><title>_Phpass</title>
<a xlink:href="db_Phpass.html" xlink:title="Phpass" target="_parent">
<polygon fill="none" stroke="black" points="592,-623 536,-623 536,-587 592,-587 592,-623"/>
<text text-anchor="middle" x="564" y="-602.1" font-family="Courier New" font-size="11.00">Phpass</text>
</a>
</g>
</g>
<script xlink:href="js/SVGPan.js"/></svg>
